<svg version="1.0" xmlns="http://www.w3.org/2000/svg"
 width="512.000000pt" height="512.000000pt" viewBox="0 0 512.000000 512.000000"
 preserveAspectRatio="xMidYMid meet" fill='currentColor'>

<g transform="translate(0.000000,512.000000) scale(0.100000,-0.100000)">
<path d="M2210 5111 c-79 -24 -159 -91 -198 -165 -27 -50 -27 -54 -32 -305
l-5 -253 -130 -52 c-71 -28 -139 -57 -150 -63 -18 -10 -38 6 -190 156 -202
198 -230 215 -350 216 -125 0 -150 -18 -406 -274 -237 -236 -267 -278 -276
-382 -4 -40 0 -74 13 -115 17 -54 33 -74 196 -242 l178 -183 -17 -32 c-9 -18
-37 -86 -63 -152 l-47 -120 -249 -5 c-248 -5 -249 -5 -306 -33 -76 -37 -143
-113 -164 -182 -12 -45 -15 -109 -12 -387 3 -325 4 -334 26 -376 34 -63 89
-120 146 -150 50 -27 54 -27 305 -32 l253 -5 52 -130 c28 -71 57 -139 63 -150
10 -18 -6 -38 -156 -190 -198 -202 -215 -230 -216 -350 0 -123 16 -146 278
-406 260 -259 282 -274 402 -274 116 1 141 16 343 215 l173 170 32 -17 c18 -9
86 -37 152 -63 l120 -47 5 -249 c5 -248 5 -249 33 -306 37 -76 113 -143 182
-164 45 -12 109 -15 387 -12 325 3 334 4 376 26 63 34 120 89 150 146 27 50
27 54 32 305 l5 254 120 47 c66 26 134 54 152 63 l32 17 173 -170 c202 -199
227 -214 343 -215 120 0 142 15 402 274 262 260 278 283 278 406 -1 120 -18
148 -216 350 -150 152 -166 172 -156 190 6 11 35 79 63 150 l52 130 248 5
c248 5 249 5 306 33 76 37 143 113 164 182 12 45 15 109 12 387 -3 325 -4 334
-26 376 -34 63 -89 120 -146 150 -50 27 -54 27 -305 32 l-254 5 -47 120 c-26
66 -54 134 -63 152 l-17 32 178 183 c163 168 179 188 196 242 13 41 17 75 13
115 -9 104 -39 146 -276 382 -256 256 -281 274 -406 274 -120 -1 -148 -18
-350 -216 -152 -150 -172 -166 -190 -156 -11 6 -78 35 -150 63 l-130 52 -5
248 c-5 248 -5 249 -33 306 -36 74 -112 143 -180 163 -41 12 -113 15 -371 14
-177 0 -332 -4 -346 -8z m716 -137 c15 -11 42 -37 58 -58 l31 -38 3 -278 c3
-247 5 -279 20 -292 9 -8 53 -27 97 -42 44 -15 131 -52 192 -82 62 -30 123
-54 136 -54 16 0 74 52 202 181 181 182 229 218 290 219 83 0 100 -12 332
-247 230 -232 243 -250 243 -328 -1 -61 -37 -109 -219 -290 -100 -99 -181
-188 -181 -198 0 -10 13 -43 28 -75 27 -53 100 -232 134 -327 l14 -40 279 -5
c310 -6 313 -6 373 -74 19 -22 33 -51 37 -78 3 -24 5 -179 3 -345 -3 -338 0
-321 -82 -387 l-38 -31 -278 -3 c-247 -3 -279 -5 -292 -20 -8 -9 -27 -53 -42
-97 -15 -44 -52 -131 -82 -192 -30 -62 -54 -123 -54 -135 0 -16 57 -80 189
-213 208 -209 220 -228 207 -322 -7 -47 -14 -54 -244 -285 -231 -230 -238
-237 -285 -244 -94 -13 -113 -1 -322 207 -105 104 -199 189 -208 189 -10 0
-43 -13 -75 -28 -53 -27 -232 -100 -327 -134 l-40 -14 -5 -279 c-6 -310 -6
-313 -74 -373 -22 -19 -51 -33 -78 -37 -24 -3 -179 -5 -345 -3 -338 3 -321 0
-387 82 l-31 38 -3 278 c-3 247 -5 279 -20 292 -9 8 -53 27 -97 42 -44 15
-131 52 -192 82 -62 30 -123 54 -135 54 -16 0 -80 -57 -213 -189 -209 -208
-228 -220 -322 -207 -47 7 -54 14 -285 244 -230 231 -237 238 -244 285 -13 94
-1 113 207 322 104 105 189 199 189 208 0 10 -13 43 -28 75 -27 53 -100 232
-134 327 l-14 40 -279 5 c-310 6 -313 6 -373 74 -19 22 -33 51 -37 78 -3 24
-5 179 -3 345 3 338 0 321 82 387 l38 31 283 5 c156 3 286 7 289 10 3 3 19 46
36 95 18 50 56 141 86 202 30 62 54 123 54 134 0 15 -60 82 -184 208 -184 185
-216 228 -216 288 0 76 15 95 243 326 232 235 249 247 332 247 61 -1 109 -37
290 -219 99 -100 188 -181 198 -181 10 0 43 13 75 28 53 27 232 100 327 134
l40 14 5 279 c4 236 8 285 22 310 23 42 70 84 104 95 16 5 174 8 351 7 308 -2
323 -3 349 -23z"/>
<path d="M2380 4050 c-348 -49 -652 -201 -892 -448 -206 -212 -336 -457 -400
-756 -31 -146 -31 -427 0 -572 64 -299 194 -544 400 -756 215 -221 474 -363
786 -430 145 -31 426 -31 572 0 300 65 543 193 756 400 221 215 363 474 430
786 31 146 31 426 0 572 -131 610 -578 1057 -1181 1185 -110 23 -367 33 -471
19z m455 -139 c274 -60 489 -178 694 -385 166 -167 264 -319 334 -521 56 -164
71 -258 71 -445 0 -187 -15 -280 -71 -445 -72 -208 -174 -364 -352 -538 -208
-202 -419 -315 -696 -373 -126 -26 -384 -26 -510 0 -277 58 -488 171 -696 373
-178 174 -280 330 -352 538 -56 165 -71 258 -71 445 0 187 15 280 71 445 72
208 174 364 352 538 229 223 472 343 782 387 99 14 340 4 444 -19z"/>
<path d="M3506 3046 c-173 -43 -196 -55 -196 -100 0 -11 24 -44 53 -74 l52
-53 -86 -82 c-47 -45 -151 -144 -230 -219 l-145 -137 -40 14 c-73 26 -148 14
-195 -31 l-27 -26 -161 128 -160 129 5 45 c12 92 -33 169 -118 204 -127 53
-273 -59 -255 -195 l5 -39 -171 -119 -171 -119 -27 20 c-63 47 -180 29 -238
-37 -67 -77 -66 -178 1 -251 62 -67 168 -83 237 -37 14 10 29 17 33 15 14 -4
58 103 58 144 l0 43 173 124 c167 121 173 124 196 109 26 -17 116 -22 167 -9
29 7 41 0 206 -138 161 -134 177 -150 187 -189 21 -85 121 -146 216 -132 89
14 164 115 152 206 l-5 39 162 153 c88 84 196 186 239 227 l77 75 50 -52 c49
-51 78 -62 108 -43 8 4 36 98 63 207 68 278 74 272 -215 200z m120 -112 c-4
-9 -11 -36 -17 -60 -6 -25 -15 -46 -19 -49 -3 -2 -26 16 -50 40 -32 32 -40 46
-29 50 24 9 103 33 113 34 4 1 5 -6 2 -15z m-1392 -215 c15 -12 26 -30 26 -45
0 -30 -41 -74 -70 -74 -27 0 -70 43 -70 70 0 26 43 70 68 70 11 0 31 -9 46
-21z m-650 -440 c50 -39 24 -119 -39 -119 -24 0 -39 7 -54 26 -27 35 -26 59 4
89 30 30 54 31 89 4z m1301 -14 c14 -13 25 -33 25 -45 0 -27 -43 -70 -70 -70
-27 0 -70 43 -70 70 0 27 43 70 70 70 12 0 32 -11 45 -25z"/>
</g>
</svg>